<svg width="1200" height="720" viewBox="0 0 1200 720" fill="none" xmlns="http://www.w3.org/2000/svg">
  <rect width="1200" height="720" rx="36" fill="#020617"/>
  <circle cx="1000" cy="100" r="190" fill="url(#g1)" fill-opacity="0.55"/>
  <circle cx="200" cy="630" r="240" fill="url(#g2)" fill-opacity="0.43"/>
  <rect x="84" y="96" width="1032" height="528" rx="24" fill="#0B1225" stroke="#22D3EE" stroke-opacity="0.28"/>
  <rect x="128" y="152" width="430" height="28" rx="14" fill="#22D3EE" fill-opacity="0.56"/>
  <rect x="128" y="206" width="720" height="16" rx="8" fill="#94A3B8" fill-opacity="0.4"/>
  <rect x="128" y="236" width="602" height="16" rx="8" fill="#94A3B8" fill-opacity="0.3"/>
  <rect x="128" y="292" width="948" height="250" rx="18" fill="#0F172A" stroke="#38BDF8" stroke-opacity="0.34"/>
  <rect x="164" y="330" width="180" height="160" rx="12" fill="#111827" stroke="#22D3EE" stroke-opacity="0.32"/>
  <rect x="372" y="330" width="180" height="160" rx="12" fill="#111827" stroke="#A78BFA" stroke-opacity="0.32"/>
  <rect x="580" y="330" width="180" height="160" rx="12" fill="#111827" stroke="#22D3EE" stroke-opacity="0.32"/>
  <rect x="788" y="330" width="252" height="160" rx="12" fill="#111827" stroke="#38BDF8" stroke-opacity="0.32"/>
  <text x="128" y="120" fill="#E2E8F0" font-size="44" font-family="Arial, sans-serif" font-weight="700">Neon Commerce</text>
  <defs>
    <radialGradient id="g1" cx="0" cy="0" r="1" gradientUnits="userSpaceOnUse" gradientTransform="translate(1000 100) rotate(90) scale(190)">
      <stop stop-color="#22D3EE"/>
      <stop offset="1" stop-color="#22D3EE" stop-opacity="0"/>
    </radialGradient>
    <radialGradient id="g2" cx="0" cy="0" r="1" gradientUnits="userSpaceOnUse" gradientTransform="translate(200 630) rotate(90) scale(240)">
      <stop stop-color="#A78BFA"/>
      <stop offset="1" stop-color="#A78BFA" stop-opacity="0"/>
    </radialGradient>
  </defs>
</svg>
